riter base italic.ufo
<glyph name="quotesingle" format="1">
  <advance width="263.412849966"/>
  <unicode hex="0027"/>
  <outline>
    <contour>
      <point x="350" y="739" type="line"/>
      <point x="259" y="760" type="line"/>
      <point x="202" y="512" type="line"/>
      <point x="293" y="492" type="line"/>
    </contour>
  </outline>
</glyph>
<glyph name="comma" format="1">
  <advance width="307"/>
  <unicode hex="002C"/>
  <outline>
    <contour>
      <point x="96" y="80" type="curve" smooth="yes"/>
      <point x="82" y="16"/>
      <point x="95" y="-1"/>
      <point x="149" y="-12" type="curve" smooth="yes"/>
      <point x="201" y="-24"/>
      <point x="221" y="-13"/>
      <point x="234" y="50" type="curve" smooth="yes"/>
      <point x="248" y="114"/>
      <point x="234" y="129"/>
      <point x="181" y="140" type="curve" smooth="yes"/>
      <point x="127" y="152"/>
      <point x="109" y="143"/>
    </contour>
    <contour>
      <point x="115" y="-102" type="line"/>
      <point x="170" y="-114" type="line"/>
      <point x="219" y="-24" type="line"/>
      <point x="234" y="48" type="line"/>
      <point x="151" y="66" type="line"/>
    </contour>
  </outline>
</glyph>
<glyph name="period" format="1">
  <advance width="330"/>
  <unicode hex="002E"/>
  <outline>
    <contour>
      <point x="192" y="141" type="curve" smooth="yes"/>
      <point x="245" y="130"/>
      <point x="259" y="115"/>
      <point x="246" y="51" type="curve" smooth="yes"/>
      <point x="232" y="-12"/>
      <point x="213" y="-23"/>
      <point x="160" y="-11" type="curve" smooth="yes"/>
      <point x="106" y="0"/>
      <point x="93" y="17"/>
      <point x="107" y="81" type="curve" smooth="yes"/>
      <point x="120" y="144"/>
      <point x="138" y="153"/>
    </contour>
  </outline>
</glyph>
<glyph name="A" format="1">
  <advance width="653"/>
  <unicode hex="0041"/>
  <outline>
    <contour>
      <point x="217" y="318" type="line"/>
      <point x="217" y="240" type="line"/>
      <point x="566" y="240" type="line"/>
      <point x="566" y="318" type="line"/>
    </contour>
    <contour>
      <point x="596" y="750" type="line"/>
      <point x="455" y="750" type="line"/>
      <point x="42" y="21" type="line"/>
      <point x="142" y="21" type="line" smooth="yes"/>
      <point x="535" y="738" type="line"/>
      <point x="509" y="726" type="line"/>
      <point x="502" y="21" type="line"/>
      <point x="602" y="21" type="line" smooth="yes"/>
    </contour>
    <contour>
      <point x="596" y="750" type="line"/>
      <point x="556" y="786" type="line"/>
      <point x="376" y="734" type="line"/>
      <point x="365" y="681" type="line"/>
      <point x="489" y="681" type="line"/>
    </contour>
    <contour>
      <point x="502" y="21" type="line"/>
      <point x="550" y="-20" type="line"/>
      <point x="657" y="16" type="line"/>
      <point x="668" y="65" type="line"/>
      <point x="566" y="65" type="line"/>
    </contour>
    <component base="serif-end-lc" xOffset="-118"/>
  </outline>
</glyph>
<glyph name="B" format="1">
  <advance width="627"/>
  <unicode hex="0042"/>
  <outline>
    <contour>
      <point x="286" y="433" type="curve"/>
      <point x="263" y="350" type="line"/>
      <point x="298" y="356"/>
      <point x="385" y="366"/>
      <point x="449" y="366" type="curve"/>
      <point x="516" y="366"/>
      <point x="541" y="312"/>
      <point x="541" y="263" type="curve"/>
      <point x="541" y="181"/>
      <point x="483" y="50"/>
      <point x="343" y="50" type="curve"/>
      <point x="251" y="50"/>
      <point x="204" y="69"/>
      <point x="178" y="80" type="curve"/>
      <point x="118" y="21" type="line"/>
      <point x="164" y="1"/>
      <point x="253" y="-25"/>
      <point x="337" y="-25" type="curve"/>
      <point x="563" y="-25"/>
      <point x="639" y="155"/>
      <point x="639" y="285" type="curve"/>
      <point x="639" y="372"/>
      <point x="561" y="419"/>
      <point x="513" y="419" type="curve" smooth="yes"/>
      <point x="479" y="419"/>
      <point x="421" y="415"/>
      <point x="401" y="408" type="curve"/>
      <point x="422" y="391" type="line"/>
      <point x="552" y="391"/>
      <point x="681" y="483"/>
      <point x="681" y="636" type="curve"/>
      <point x="681" y="724"/>
      <point x="629" y="785"/>
      <point x="565" y="785" type="curve" smooth="yes"/>
      <point x="440" y="785"/>
      <point x="355" y="735"/>
      <point x="315" y="716" type="curve"/>
      <point x="334" y="676" type="line"/>
      <point x="378" y="689"/>
      <point x="443" y="712"/>
      <point x="517" y="712" type="curve" smooth="yes"/>
      <point x="574" y="712"/>
      <point x="582" y="673"/>
      <point x="582" y="633" type="curve"/>
      <point x="582" y="535"/>
      <point x="512" y="460"/>
      <point x="450" y="443" type="curve"/>
      <point x="364" y="427"/>
      <point x="308" y="430"/>
    </contour>
    <component base="serif-top-lc" xOffset="-39" yOffset="231"/>
    <component base="stem-uc" xOffset="1" yOffset="1"/>
  </outline>
</glyph>
<glyph name="C" format="1">
  <advance width="547.224435768"/>
  <unicode hex="0043"/>
  <outline>
    <contour>
      <point x="676" y="720" type="curve"/>
      <point x="613" y="539" type="line"/>
      <point x="539" y="556" type="line"/>
      <point x="570" y="702" type="line"/>
      <point x="590" y="659" type="line"/>
      <point x="575" y="675"/>
      <point x="523" y="698"/>
      <point x="469" y="698" type="curve"/>
      <point x="324" y="698"/>
      <point x="231.0" y="430.0"/>
      <point x="231.0" y="230.0" type="curve"/>
      <point x="231.0" y="129.0"/>
      <point x="272" y="48"/>
      <point x="382" y="48" type="curve" smooth="yes"/>
      <point x="421" y="48"/>
      <point x="477" y="71"/>
      <point x="508" y="112" type="curve"/>
      <point x="559" y="64" type="line"/>
      <point x="514" y="14"/>
      <point x="449.0" y="-28.0"/>
      <point x="381.0" y="-28.0" type="curve" smooth="yes"/>
      <point x="183.0" y="-28.0"/>
      <point x="131.0" y="81.0"/>
      <point x="131.0" y="203.0" type="curve"/>
      <point x="131.0" y="417.0"/>
      <point x="223" y="779"/>
      <point x="474" y="779" type="curve"/>
      <point x="570" y="779"/>
      <point x="616" y="761"/>
    </contour>
  </outline>
</glyph>
<glyph name="D" format="1">
  <advance width="666.384684112"/>
  <unicode hex="0044"/>
  <outline>
    <contour>
      <point x="119" y="20" type="line"/>
      <point x="176" y="-8"/>
      <point x="224" y="-23"/>
      <point x="324" y="-23" type="curve"/>
      <point x="613" y="-23"/>
      <point x="725" y="363"/>
      <point x="725" y="566" type="curve"/>
      <point x="725" y="727"/>
      <point x="632" y="785"/>
      <point x="575" y="785" type="curve" smooth="yes"/>
      <point x="450" y="785"/>
      <point x="354" y="735"/>
      <point x="314" y="716" type="curve"/>
      <point x="333" y="674" type="line"/>
      <point x="377" y="687"/>
      <point x="453" y="710"/>
      <point x="527" y="710" type="curve" smooth="yes"/>
      <point x="577" y="710"/>
      <point x="620" y="668"/>
      <point x="620" y="558" type="curve"/>
      <point x="620" y="395"/>
      <point x="531" y="51"/>
      <point x="315" y="51" type="curve"/>
      <point x="242" y="51"/>
      <point x="205" y="61"/>
      <point x="179" y="79" type="curve"/>
    </contour>
    <component base="serif-top-lc" xOffset="-40" yOffset="231"/>
    <component base="stem-uc" xOffset="1"/>
  </outline>
</glyph>
<glyph name="E" format="1">
  <advance width="534.521539318"/>
  <unicode hex="0045"/>
  <outline>
    <contour>
      <point x="119" y="41" type="line"/>
      <point x="167" y="0" type="line"/>
      <point x="524" y="0" type="line"/>
      <point x="574" y="171" type="line"/>
      <point x="510" y="171" type="line"/>
      <point x="440" y="57" type="line"/>
      <point x="492" y="73" type="line"/>
      <point x="183" y="73" type="line"/>
    </contour>
    <contour>
      <point x="219" y="41" type="line" smooth="yes"/>
      <point x="385" y="750" type="line"/>
      <point x="285" y="750" type="line"/>
      <point x="119" y="41" type="line"/>
    </contour>
    <contour>
      <point x="261" y="421" type="line"/>
      <point x="261" y="343" type="line"/>
      <point x="530" y="343" type="line"/>
      <point x="549" y="421" type="line"/>
    </contour>
    <contour>
      <point x="201" y="723" type="line"/>
      <point x="191" y="678" type="line"/>
      <point x="642" y="678" type="line"/>
      <point x="567" y="694" type="line"/>
      <point x="570" y="580" type="line"/>
      <point x="634" y="580" type="line"/>
      <point x="674" y="751" type="line"/>
      <point x="288" y="751" type="line"/>
    </contour>
  </outline>
</glyph>
<glyph name="F" format="1">
  <advance width="549.078438362"/>
  <unicode hex="0046"/>
  <outline>
    <contour>
      <point x="216" y="21" type="line" smooth="yes"/>
      <point x="388" y="757" type="line"/>
      <point x="303" y="757" type="line"/>
      <point x="283" y="735" type="line"/>
      <point x="116" y="21" type="line"/>
    </contour>
    <contour>
      <point x="245" y="401" type="line"/>
      <point x="245" y="323" type="line"/>
      <point x="545" y="323" type="line"/>
      <point x="564" y="401" type="line"/>
    </contour>
    <contour>
      <point x="185" y="723" type="line"/>
      <point x="175" y="678" type="line"/>
      <point x="646" y="678" type="line"/>
      <point x="571" y="694" type="line"/>
      <point x="574" y="580" type="line"/>
      <point x="638" y="580" type="line"/>
      <point x="682" y="762" type="line"/>
      <point x="295" y="762" type="line"/>
    </contour>
    <contour>
      <point x="116" y="21" type="line"/>
      <point x="164" y="-20" type="line"/>
      <point x="283" y="16" type="line"/>
      <point x="294" y="65" type="line"/>
      <point x="180" y="65" type="line"/>
    </contour>
  </outline>
</glyph>
<glyph name="G" format="1">
  <advance width="640.120892355"/>
  <unicode hex="0047"/>
  <outline>
    <contour>
      <point x="710" y="724" type="line"/>
      <point x="667" y="758"/>
      <point x="596" y="779"/>
      <point x="499" y="779" type="curve"/>
      <point x="210" y="779"/>
      <point x="131" y="417"/>
      <point x="131" y="203" type="curve"/>
      <point x="131" y="81"/>
      <point x="183" y="-28"/>
      <point x="381" y="-28" type="curve" smooth="yes"/>
      <point x="449" y="-28"/>
      <point x="541" y="6"/>
      <point x="578" y="47" type="curve"/>
      <point x="647" y="332" type="line"/>
      <point x="543" y="312" type="line"/>
      <point x="477" y="55" type="line"/>
      <point x="531" y="112" type="line"/>
      <point x="500" y="71"/>
      <point x="422" y="48"/>
      <point x="375" y="48" type="curve"/>
      <point x="272" y="48"/>
      <point x="231" y="129"/>
      <point x="231" y="230" type="curve"/>
      <point x="231" y="430"/>
      <point x="307" y="698"/>
      <point x="489" y="698" type="curve"/>
      <point x="552" y="698"/>
      <point x="589" y="684"/>
      <point x="609" y="669" type="curve"/>
      <point x="604" y="706" type="line"/>
      <point x="579" y="593" type="line"/>
      <point x="653" y="576" type="line"/>
    </contour>
    <contour>
      <point x="648" y="333" type="line"/>
      <point x="601" y="387" type="line"/>
      <point x="437" y="335" type="line"/>
      <point x="426" y="282" type="line"/>
      <point x="550" y="282" type="line"/>
    </contour>
  </outline>
</glyph>
<glyph name="H" format="1">
  <advance width="719.306108942"/>
  <unicode hex="0048"/>
  <outline>
    <contour>
      <point x="263" y="421" type="line"/>
      <point x="263" y="343" type="line"/>
      <point x="612" y="343" type="line"/>
      <point x="612" y="421" type="line"/>
    </contour>
    <component base="serif-top-lc" xOffset="-38" yOffset="231"/>
    <component base="serif-top-lc" xOffset="349" yOffset="231"/>
    <component base="serif-end-lc" xOffset="347"/>
    <component base="serif-end-lc" xOffset="-40"/>
    <component base="stem-uc" xOffset="3"/>
    <component base="stem-uc" xOffset="390"/>
  </outline>
</glyph>
<glyph name="I" format="1">
  <advance width="332.306108942"/>
  <unicode hex="0049"/>
  <outline>
    <contour>
      <point x="217" y="21" type="line" smooth="yes"/>
      <point x="385" y="750" type="line"/>
      <point x="285" y="750" type="line"/>
      <point x="117" y="21" type="line"/>
    </contour>
    <component base="serif-end-lc" xOffset="-47"/>
    <component base="serif-top-lc" xOffset="-41" yOffset="231"/>
  </outline>
</glyph>
<glyph name="J" format="1">
  <advance width="325.848856656"/>
  <unicode hex="004A"/>
  <outline>
    <contour>
      <point x="280" y="685" type="line"/>
      <point x="256" y="550"/>
      <point x="140" y="93"/>
      <point x="126" y="52" type="curve" smooth="yes"/>
      <point x="77" y="-96"/>
      <point x="45" y="-126"/>
      <point x="-56" y="-126" type="curve"/>
      <point x="-62" y="-126"/>
      <point x="-67" y="-125"/>
      <point x="-72" y="-125" type="curve"/>
      <point x="-91" y="-197" type="line"/>
      <point x="-73" y="-199"/>
      <point x="-61" y="-200"/>
      <point x="-48" y="-200" type="curve"/>
      <point x="95" y="-200"/>
      <point x="166" y="-154"/>
      <point x="220" y="31" type="curve" smooth="yes"/>
      <point x="230" y="64"/>
      <point x="370" y="594"/>
      <point x="400" y="750" type="curve"/>
      <point x="331" y="750" type="line"/>
    </contour>
    <contour>
      <point x="400" y="751" type="line"/>
      <point x="360" y="787" type="line"/>
      <point x="176" y="735" type="line"/>
      <point x="165" y="682" type="line"/>
      <point x="293" y="682" type="line"/>
    </contour>
  </outline>
</glyph>
<glyph name="L" format="1">
  <advance width="517.521539318"/>
  <unicode hex="004C"/>
  <outline>
    <contour>
      <point x="119" y="41" type="line"/>
      <point x="167" y="0" type="line"/>
      <point x="507" y="0" type="line"/>
      <point x="557" y="171" type="line"/>
      <point x="493" y="171" type="line"/>
      <point x="423" y="57" type="line"/>
      <point x="475" y="73" type="line"/>
      <point x="183" y="73" type="line"/>
    </contour>
    <contour>
      <point x="219" y="41" type="line" smooth="yes"/>
      <point x="385" y="750" type="line"/>
      <point x="285" y="750" type="line"/>
      <point x="119" y="41" type="line"/>
    </contour>
    <component base="serif-top-lc" xOffset="-41" yOffset="231"/>
  </outline>
</glyph>
<glyph name="M" format="1">
  <advance width="939.306108942"/>
  <unicode hex="004D"/>
  <outline>
    <contour>
      <point x="459" y="750" type="line"/>
      <point x="419" y="786" type="line"/>
      <point x="272" y="734" type="line"/>
      <point x="261" y="681" type="line"/>
      <point x="363" y="681" type="line"/>
    </contour>
    <contour>
      <point x="902" y="27" type="line"/>
      <point x="904" y="751" type="line"/>
      <point x="775" y="736" type="line"/>
      <point x="553" y="179" type="line"/>
      <point x="531" y="77" type="line"/>
      <point x="533" y="177" type="line"/>
      <point x="459" y="750" type="line"/>
      <point x="349" y="750" type="line"/>
      <point x="120" y="21" type="line"/>
      <point x="212" y="21" type="line"/>
      <point x="384" y="609" type="line"/>
      <point x="397" y="682" type="line"/>
      <point x="402" y="608" type="line"/>
      <point x="475" y="-15" type="line"/>
      <point x="577" y="15" type="line"/>
      <point x="806" y="608" type="line"/>
      <point x="826" y="682" type="line"/>
      <point x="829" y="609" type="line"/>
      <point x="799" y="22" type="line"/>
    </contour>
    <component base="serif-end-lc" xOffset="-40"/>
    <component base="serif-top-lc" xOffset="478" yOffset="232"/>
    <component base="serif-end-lc" xOffset="639"/>
  </outline>
</glyph>
<glyph name="O" format="1">
  <advance width="655.789967272"/>
  <unicode hex="004F"/>
  <outline>
    <contour>
      <point x="697" y="320"/>
      <point x="610" y="-28"/>
      <point x="381" y="-28" type="curve" smooth="yes"/>
      <point x="183" y="-28"/>
      <point x="131" y="81"/>
      <point x="131" y="203" type="curve"/>
      <point x="131" y="417"/>
      <point x="223" y="779"/>
      <point x="460" y="779" type="curve"/>
      <point x="639" y="779"/>
      <point x="697" y="670"/>
      <point x="697" y="571" type="curve"/>
    </contour>
    <contour>
      <point x="231" y="129"/>
      <point x="272" y="54"/>
      <point x="382" y="54" type="curve" smooth="yes"/>
      <point x="505" y="54"/>
      <point x="596" y="298"/>
      <point x="596" y="534" type="curve"/>
      <point x="596" y="624"/>
      <point x="550" y="695"/>
      <point x="442" y="695" type="curve"/>
      <point x="324" y="695"/>
      <point x="231" y="430"/>
      <point x="231" y="230" type="curve"/>
    </contour>
  </outline>
</glyph>
<glyph name="P" format="1">
  <advance width="611.521411146"/>
  <unicode hex="0050"/>
  <outline>
    <contour>
      <point x="204" y="313" type="line"/>
      <point x="261" y="285"/>
      <point x="289" y="258"/>
      <point x="411" y="258" type="curve"/>
      <point x="644" y="258"/>
      <point x="714" y="476"/>
      <point x="714" y="639" type="curve"/>
      <point x="714" y="727"/>
      <point x="630" y="785"/>
      <point x="566" y="785" type="curve" smooth="yes"/>
      <point x="441" y="785"/>
      <point x="356" y="735"/>
      <point x="316" y="716" type="curve"/>
      <point x="335" y="674" type="line"/>
      <point x="379" y="687"/>
      <point x="444" y="710"/>
      <point x="518" y="710" type="curve" smooth="yes"/>
      <point x="575" y="710"/>
      <point x="609" y="668"/>
      <point x="609" y="616" type="curve"/>
      <point x="609" y="496"/>
      <point x="557" y="333"/>
      <point x="414" y="333" type="curve"/>
      <point x="332" y="333"/>
      <point x="290" y="361"/>
      <point x="264" y="372" type="curve"/>
    </contour>
    <contour>
      <point x="120" y="21" type="line"/>
      <point x="168" y="-20" type="line"/>
      <point x="320" y="16" type="line"/>
      <point x="331" y="65" type="line"/>
      <point x="184" y="65" type="line"/>
    </contour>
    <component base="serif-top-lc" xOffset="-38" yOffset="231"/>
    <component base="stem-uc" xOffset="3"/>
  </outline>
</glyph>
<glyph name="Q" format="1">
  <advance width="656"/>
  <unicode hex="0051"/>
  <outline>
    <contour>
      <point x="610" y="-28"/>
      <point x="697" y="320"/>
      <point x="697" y="571" type="curve"/>
      <point x="697" y="670"/>
      <point x="639" y="779"/>
      <point x="460" y="779" type="curve"/>
      <point x="223" y="779"/>
      <point x="131" y="417"/>
      <point x="131" y="203" type="curve"/>
      <point x="131" y="81"/>
      <point x="183" y="-28"/>
      <point x="381" y="-28" type="curve" smooth="yes"/>
    </contour>
    <contour>
      <point x="272" y="54"/>
      <point x="231" y="129"/>
      <point x="231" y="230" type="curve"/>
      <point x="231" y="430"/>
      <point x="324" y="695"/>
      <point x="442" y="695" type="curve"/>
      <point x="550" y="695"/>
      <point x="596" y="624"/>
      <point x="596" y="534" type="curve"/>
      <point x="596" y="298"/>
      <point x="505" y="54"/>
      <point x="382" y="54" type="curve" smooth="yes"/>
    </contour>
    <contour>
      <point x="364" y="106" type="line"/>
      <point x="510" y="-117" type="line"/>
      <point x="611" y="-86" type="line"/>
      <point x="622" y="-37" type="line"/>
      <point x="535" y="-37" type="line"/>
      <point x="573" y="-60" type="line"/>
      <point x="434" y="144" type="line"/>
    </contour>
  </outline>
</glyph>
<glyph name="R" format="1">
  <advance width="651"/>
  <unicode hex="0052"/>
  <outline>
    <contour>
      <point x="211" y="343" type="line"/>
      <point x="261" y="322"/>
      <point x="310" y="313"/>
      <point x="410" y="313" type="curve"/>
      <point x="598" y="313"/>
      <point x="704" y="476"/>
      <point x="704" y="633" type="curve"/>
      <point x="704" y="727"/>
      <point x="629" y="785"/>
      <point x="565" y="785" type="curve" smooth="yes"/>
      <point x="440" y="785"/>
      <point x="355" y="735"/>
      <point x="315" y="716" type="curve"/>
      <point x="334" y="674" type="line"/>
      <point x="378" y="687"/>
      <point x="443" y="710"/>
      <point x="517" y="710" type="curve" smooth="yes"/>
      <point x="574" y="710"/>
      <point x="599" y="668"/>
      <point x="599" y="610" type="curve"/>
      <point x="599" y="496"/>
      <point x="514" y="385"/>
      <point x="396" y="385" type="curve"/>
      <point x="350" y="385"/>
      <point x="305" y="390"/>
      <point x="271" y="402" type="curve"/>
    </contour>
    <contour>
      <point x="119" y="21" type="line"/>
      <point x="167" y="-20" type="line"/>
      <point x="282" y="16" type="line"/>
      <point x="293" y="65" type="line"/>
      <point x="183" y="65" type="line"/>
    </contour>
    <contour>
      <point x="407" y="331" type="line"/>
      <point x="514" y="-24" type="line"/>
      <point x="644" y="14" type="line"/>
      <point x="654" y="63" type="line"/>
      <point x="554" y="63" type="line"/>
      <point x="597" y="42" type="line"/>
      <point x="503" y="359" type="line"/>
    </contour>
    <component base="serif-top-lc" xOffset="-39" yOffset="231"/>
    <component base="stem-uc" xOffset="2"/>
  </outline>
</glyph>
<glyph name="S" format="1">
  <advance width="562.86613284"/>
  <unicode hex="0053"/>
  <outline>
    <contour>
      <point x="574" y="461"/>
      <point x="275" y="400"/>
      <point x="275" y="566" type="curve"/>
      <point x="275" y="643"/>
      <point x="350" y="703"/>
      <point x="419" y="703" type="curve"/>
      <point x="467" y="703"/>
      <point x="517" y="690"/>
      <point x="548" y="660" type="curve"/>
      <point x="535" y="701" type="line"/>
      <point x="530" y="563" type="line"/>
      <point x="603" y="552" type="line"/>
      <point x="645" y="724" type="line"/>
      <point x="602" y="752"/>
      <point x="526" y="781"/>
      <point x="443" y="781" type="curve"/>
      <point x="285" y="781"/>
      <point x="182" y="688"/>
      <point x="182" y="564" type="curve"/>
      <point x="182" y="325"/>
      <point x="474" y="392"/>
      <point x="474" y="220" type="curve"/>
      <point x="474" y="135"/>
      <point x="431" y="59"/>
      <point x="312" y="59" type="curve"/>
      <point x="250" y="59"/>
      <point x="190" y="90"/>
      <point x="163" y="116" type="curve"/>
      <point x="185" y="55" type="line"/>
      <point x="184" y="219" type="line"/>
      <point x="117" y="243" type="line"/>
      <point x="74" y="58" type="line"/>
      <point x="125" y="20"/>
      <point x="204" y="-19"/>
      <point x="320" y="-19" type="curve"/>
      <point x="493" y="-19"/>
      <point x="574" y="92"/>
      <point x="574" y="225" type="curve"/>
    </contour>
  </outline>
</glyph>
<glyph name="T" format="1">
  <advance width="498.479085325"/>
  <unicode hex="0054"/>
  <outline>
    <contour>
      <point x="365" y="730" type="line" smooth="yes"/>
      <point x="199" y="21" type="line"/>
      <point x="299" y="21" type="line"/>
      <point x="465" y="730" type="line"/>
    </contour>
    <contour>
      <point x="585" y="698" type="line"/>
      <point x="554" y="728" type="line"/>
      <point x="554" y="600" type="line"/>
      <point x="618" y="600" type="line"/>
      <point x="655" y="771" type="line"/>
      <point x="178" y="771" type="line"/>
      <point x="139" y="600" type="line"/>
      <point x="203" y="600" type="line"/>
      <point x="265" y="724" type="line"/>
      <point x="219" y="698" type="line"/>
    </contour>
    <component base="serif-end-lc" xOffset="39"/>
  </outline>
</glyph>
<glyph name="U" format="1">
  <advance width="696"/>
  <unicode hex="0055"/>
  <outline>
    <contour>
      <point x="658" y="757" type="line"/>
      <point x="543" y="261" type="line"/>
      <point x="571" y="336" type="line"/>
      <point x="521" y="253"/>
      <point x="403" y="64"/>
      <point x="317" y="64" type="curve"/>
      <point x="272" y="64"/>
      <point x="242" y="97"/>
      <point x="242" y="149" type="curve"/>
      <point x="242" y="179"/>
      <point x="358" y="651"/>
      <point x="381" y="751" type="curve"/>
      <point x="270" y="708" type="line"/>
      <point x="265" y="672"/>
      <point x="136" y="176"/>
      <point x="136" y="103" type="curve"/>
      <point x="136" y="40"/>
      <point x="203" y="-24"/>
      <point x="280" y="-24" type="curve"/>
      <point x="423" y="-24"/>
      <point x="542" y="175"/>
      <point x="560" y="239" type="curve"/>
      <point x="540" y="225" type="line"/>
      <point x="488" y="21" type="line"/>
      <point x="584" y="10" type="line"/>
      <point x="760" y="751" type="line"/>
    </contour>
    <component base="serif-top-lc" xOffset="-45" yOffset="232"/>
    <component base="serif-end-lc" xOffset="326"/>
    <component base="serif-top-lc" xOffset="334" yOffset="232"/>
  </outline>
</glyph>
<glyph name="W" format="1">
  <advance width="964.079724847"/>
  <unicode hex="0057"/>
  <outline>
    <contour>
      <point x="332" y="750" type="line"/>
      <point x="292" y="786" type="line"/>
      <point x="169" y="734" type="line"/>
      <point x="158" y="681" type="line"/>
      <point x="236" y="681" type="line"/>
    </contour>
    <contour>
      <point x="1107" y="750" type="line"/>
      <point x="1067" y="786" type="line"/>
      <point x="905" y="734" type="line"/>
      <point x="894" y="681" type="line"/>
      <point x="1010" y="681" type="line"/>
    </contour>
    <contour>
      <point x="614" y="684" type="line"/>
      <point x="638" y="-1" type="line"/>
      <point x="762" y="9" type="line"/>
      <point x="1107" y="749" type="line"/>
      <point x="977" y="711" type="line"/>
      <point x="744" y="162" type="line"/>
      <point x="723" y="89" type="line"/>
      <point x="732" y="162" type="line"/>
      <point x="707" y="763" type="line"/>
      <point x="570" y="725" type="line"/>
      <point x="358" y="162" type="line"/>
      <point x="337" y="89" type="line"/>
      <point x="346" y="162" type="line"/>
      <point x="332" y="750" type="line"/>
      <point x="235" y="698" type="line"/>
      <point x="252" y="-1" type="line"/>
      <point x="376" y="9" type="line"/>
      <point x="650" y="692" type="line"/>
    </contour>
  </outline>
</glyph>
<glyph name="X" format="1">
  <advance width="649.229581706"/>
  <unicode hex="0058"/>
  <outline>
    <contour>
      <point x="145" y="60" type="line"/>
      <point x="249" y="60" type="line"/>
      <point x="240" y="11" type="line"/>
      <point x="89" y="-25" type="line"/>
      <point x="54" y="41" type="line"/>
      <point x="355" y="429" type="line"/>
      <point x="352" y="393" type="line"/>
      <point x="235" y="708" type="line"/>
      <point x="293" y="681" type="line"/>
      <point x="169" y="681" type="line"/>
      <point x="180" y="734" type="line"/>
      <point x="316" y="781" type="line"/>
      <point x="444" y="419" type="line"/>
      <point x="405" y="418" type="line"/>
      <point x="632" y="730" type="line"/>
      <point x="616" y="680" type="line"/>
      <point x="526" y="680" type="line"/>
      <point x="537" y="733" type="line"/>
      <point x="705" y="778" type="line"/>
      <point x="739" y="722" type="line"/>
      <point x="449" y="349" type="line"/>
      <point x="458" y="409" type="line"/>
      <point x="594" y="53" type="line"/>
      <point x="549" y="72" type="line"/>
      <point x="661" y="61" type="line"/>
      <point x="652" y="12" type="line"/>
      <point x="513" y="-24" type="line"/>
      <point x="373" y="371" type="line"/>
      <point x="404" y="357" type="line"/>
      <point x="171" y="42" type="line"/>
    </contour>
  </outline>
</glyph>
<glyph name="Z" format="1">
  <advance width="583"/>
  <unicode hex="005A"/>
  <outline>
    <contour>
      <point x="499" y="81" type="line"/>
      <point x="450" y="55" type="line"/>
      <point x="494" y="154" type="line"/>
      <point x="562" y="154" type="line"/>
      <point x="523" y="1" type="line"/>
      <point x="67" y="1" type="line"/>
      <point x="67" y="87" type="line"/>
      <point x="544" y="692" type="line"/>
      <point x="583" y="664" type="line"/>
      <point x="255" y="664" type="line"/>
      <point x="298" y="696" type="line"/>
      <point x="247" y="600" type="line"/>
      <point x="186" y="600" type="line"/>
      <point x="225" y="751" type="line"/>
      <point x="653" y="751" type="line"/>
      <point x="653" y="680" type="line"/>
      <point x="163" y="57" type="line"/>
      <point x="143" y="81" type="line"/>
    </contour>
  </outline>
</glyph>
<glyph name="a" format="1">
  <advance width="580"/>
  <unicode hex="0061"/>
  <outline>
    <contour>
      <point x="567" y="359" type="line"/>
      <point x="567" y="440"/>
      <point x="499" y="550"/>
      <point x="399" y="550" type="curve"/>
      <point x="203" y="550"/>
      <point x="130" y="314"/>
      <point x="130" y="183" type="curve"/>
      <point x="130" y="27"/>
      <point x="177" y="-11"/>
      <point x="267" y="-11" type="curve"/>
      <point x="435" y="-11"/>
      <point x="521" y="174"/>
      <point x="521" y="198" type="curve"/>
      <point x="509" y="276" type="line"/>
      <point x="509" y="212"/>
      <point x="407" y="57"/>
      <point x="311" y="57" type="curve"/>
      <point x="256" y="57"/>
      <point x="239" y="96"/>
      <point x="239" y="207" type="curve"/>
      <point x="239" y="283"/>
      <point x="274" y="473"/>
      <point x="376" y="473" type="curve"/>
      <point x="444" y="473"/>
      <point x="534" y="407"/>
      <point x="534" y="326" type="curve"/>
    </contour>
    <component base="stem-lc" xOffset="324"/>
    <component base="serif-end-lc" xOffset="279"/>
  </outline>
</glyph>
<glyph name="b" format="1">
  <advance width="605.66332411"/>
  <unicode hex="0062"/>
  <outline>
    <contour>
      <point x="292" y="800" type="line"/>
      <point x="107" y="27" type="line"/>
      <point x="199" y="6" type="line"/>
      <point x="389" y="800" type="line"/>
    </contour>
    <contour>
      <point x="107" y="28" type="line"/>
      <point x="164" y="0"/>
      <point x="207" y="-27"/>
      <point x="329" y="-27" type="curve"/>
      <point x="562" y="-27"/>
      <point x="631" y="239"/>
      <point x="631" y="419" type="curve"/>
      <point x="631" y="490"/>
      <point x="555" y="546"/>
      <point x="491" y="546" type="curve" smooth="yes"/>
      <point x="366" y="546"/>
      <point x="254" y="372"/>
      <point x="228" y="339" type="curve"/>
      <point x="247" y="305" type="line"/>
      <point x="277" y="339"/>
      <point x="388" y="464"/>
      <point x="462" y="464" type="curve" smooth="yes"/>
      <point x="489" y="464"/>
      <point x="533" y="431"/>
      <point x="533" y="390" type="curve"/>
      <point x="533" y="259"/>
      <point x="475" y="44"/>
      <point x="332" y="44" type="curve"/>
      <point x="250" y="44"/>
      <point x="197" y="76"/>
      <point x="171" y="87" type="curve"/>
    </contour>
    <component base="serif-top-lc" xOffset="-37" yOffset="280"/>
  </outline>
</glyph>
<glyph name="c" format="1">
  <advance width="484.149195017"/>
  <unicode hex="0063"/>
  <outline>
    <contour>
      <point x="484" y="47" type="line"/>
      <point x="440" y="2"/>
      <point x="385" y="-29"/>
      <point x="316" y="-29" type="curve"/>
      <point x="167" y="-29"/>
      <point x="103" y="74"/>
      <point x="103" y="157" type="curve"/>
      <point x="103" y="351"/>
      <point x="188" y="553"/>
      <point x="368" y="553" type="curve"/>
      <point x="439" y="553"/>
      <point x="534" y="518"/>
      <point x="558" y="486" type="curve"/>
      <point x="508" y="349" type="line"/>
      <point x="455" y="358" type="line"/>
      <point x="462" y="447" type="line"/>
      <point x="446" y="467"/>
      <point x="396" y="478"/>
      <point x="358" y="478" type="curve" smooth="yes"/>
      <point x="274" y="478"/>
      <point x="200" y="331"/>
      <point x="200" y="171" type="curve"/>
      <point x="200" y="112"/>
      <point x="234" y="46"/>
      <point x="320" y="46" type="curve" smooth="yes"/>
      <point x="360" y="46"/>
      <point x="411" y="66"/>
      <point x="446" y="101" type="curve"/>
    </contour>
  </outline>
</glyph>
<glyph name="d" format="1">
  <advance width="624.306108942"/>
  <unicode hex="0064"/>
  <outline>
    <contour>
      <point x="563" y="326" type="line"/>
      <point x="546" y="383"/>
      <point x="493" y="556"/>
      <point x="356" y="556" type="curve" smooth="yes"/>
      <point x="202" y="556"/>
      <point x="113" y="335"/>
      <point x="113" y="113" type="curve"/>
      <point x="113" y="44"/>
      <point x="179" y="-20"/>
      <point x="245" y="-20" type="curve"/>
      <point x="374" y="-20"/>
      <point x="458" y="108"/>
      <point x="500" y="165" type="curve"/>
      <point x="486" y="205" type="line"/>
      <point x="440" y="147"/>
      <point x="362" y="56"/>
      <point x="278" y="56" type="curve"/>
      <point x="237" y="56"/>
      <point x="207" y="101"/>
      <point x="207" y="137" type="curve"/>
      <point x="207" y="297"/>
      <point x="278" y="476"/>
      <point x="376" y="476" type="curve" smooth="yes"/>
      <point x="461" y="476"/>
      <point x="509" y="322"/>
      <point x="516" y="283" type="curve"/>
    </contour>
    <component base="stem-lc-tall" xOffset="313"/>
    <component base="serif-end-lc" xOffset="266"/>
    <component base="serif-top-lc" xOffset="276" yOffset="279"/>
  </outline>
</glyph>
<glyph name="e" format="1">
  <advance width="501"/>
  <unicode hex="0065"/>
  <outline>
    <contour>
      <point x="477" y="52" type="line"/>
      <point x="433" y="7"/>
      <point x="376" y="-22"/>
      <point x="307" y="-22" type="curve"/>
      <point x="158" y="-22"/>
      <point x="99" y="54"/>
      <point x="99" y="137" type="curve"/>
      <point x="99" y="331"/>
      <point x="184" y="547"/>
      <point x="364" y="547" type="curve"/>
      <point x="461" y="547"/>
      <point x="542" y="485"/>
      <point x="542" y="420" type="curve"/>
      <point x="542" y="227"/>
      <point x="359" y="206"/>
      <point x="164" y="206" type="curve"/>
      <point x="164" y="285" type="line"/>
      <point x="323" y="285"/>
      <point x="453" y="300"/>
      <point x="453" y="406" type="curve" smooth="yes"/>
      <point x="453" y="440"/>
      <point x="413" y="472"/>
      <point x="362" y="472" type="curve"/>
      <point x="270" y="472"/>
      <point x="196" y="311"/>
      <point x="196" y="151" type="curve"/>
      <point x="196" y="92"/>
      <point x="225" y="53"/>
      <point x="311" y="53" type="curve" smooth="yes"/>
      <point x="351" y="53"/>
      <point x="404" y="72"/>
      <point x="439" y="107" type="curve"/>
    </contour>
  </outline>
</glyph>
<glyph name="f" format="1">
  <advance width="428"/>
  <unicode hex="0066"/>
  <outline>
    <contour>
      <point x="387" y="729"/>
      <point x="370" y="674"/>
      <point x="359" y="630" type="curve" smooth="yes"/>
      <point x="193" y="-52" type="line"/>
      <point x="146" y="-88" type="line"/>
      <point x="20" y="-50" type="line"/>
      <point x="32" y="0" type="line"/>
      <point x="141" y="0" type="line"/>
      <point x="104" y="-29" type="line"/>
      <point x="262" y="647" type="line" smooth="yes"/>
      <point x="279" y="720"/>
      <point x="319" y="806"/>
      <point x="440" y="806" type="curve"/>
      <point x="535" y="806"/>
      <point x="597" y="756"/>
      <point x="601" y="751" type="curve"/>
      <point x="570" y="617" type="line"/>
      <point x="518" y="622" type="line"/>
      <point x="511" y="731" type="line"/>
      <point x="532" y="691" type="line"/>
      <point x="515" y="706"/>
      <point x="489" y="729"/>
      <point x="436" y="729" type="curve"/>
    </contour>
    <contour>
      <point x="189" y="526" type="line"/>
      <point x="489" y="526" type="line"/>
      <point x="471" y="453" type="line"/>
      <point x="171" y="453" type="line"/>
    </contour>
  </outline>
</glyph>
<glyph name="g" format="1">
  <advance width="576.794199659"/>
  <unicode hex="0067"/>
  <outline>
    <contour>
      <point x="553" y="409" type="line"/>
      <point x="530" y="460"/>
      <point x="483" y="556"/>
      <point x="346" y="556" type="curve" smooth="yes"/>
      <point x="192" y="556"/>
      <point x="103" y="335"/>
      <point x="103" y="130" type="curve"/>
      <point x="103" y="44"/>
      <point x="169" y="-20"/>
      <point x="235" y="-20" type="curve"/>
      <point x="364" y="-20"/>
      <point x="448" y="108"/>
      <point x="490" y="165" type="curve"/>
      <point x="476" y="205" type="line"/>
      <point x="430" y="147"/>
      <point x="352" y="53"/>
      <point x="268" y="53" type="curve"/>
      <point x="227" y="53"/>
      <point x="197" y="98"/>
      <point x="197" y="146" type="curve"/>
      <point x="197" y="294"/>
      <point x="268" y="476"/>
      <point x="366" y="476" type="curve" smooth="yes"/>
      <point x="451" y="476"/>
      <point x="502" y="411"/>
      <point x="511" y="372" type="curve"/>
    </contour>
    <contour>
      <point x="506" y="478" type="line"/>
      <point x="406" y="36" type="line" smooth="yes"/>
      <point x="374" y="-105"/>
      <point x="322" y="-152"/>
      <point x="221" y="-152" type="curve"/>
      <point x="148" y="-150"/>
      <point x="104" y="-103"/>
      <point x="81" y="-82" type="curve"/>
      <point x="56" y="-148" type="line"/>
      <point x="73" y="-164"/>
      <point x="132" y="-225"/>
      <point x="221" y="-225" type="curve"/>
      <point x="364" y="-225"/>
      <point x="449" y="-160"/>
      <point x="486" y="-5" type="curve" smooth="yes"/>
      <point x="613" y="525" type="line"/>
      <point x="551" y="525" type="line"/>
    </contour>
  </outline>
</glyph>
<glyph name="h" format="1">
  <advance width="654"/>
  <unicode hex="0068"/>
  <outline>
    <contour>
      <point x="206" y="0" type="line"/>
      <point x="263" y="240" type="line"/>
      <point x="298" y="311"/>
      <point x="425" y="455"/>
      <point x="488" y="455" type="curve"/>
      <point x="516" y="455"/>
      <point x="541" y="430"/>
      <point x="541" y="398" type="curve"/>
      <point x="541" y="368"/>
      <point x="477" y="121"/>
      <point x="454" y="21" type="curve"/>
      <point x="556" y="49" type="line"/>
      <point x="561" y="85"/>
      <point x="642" y="382"/>
      <point x="642" y="455" type="curve"/>
      <point x="642" y="504"/>
      <point x="585" y="549"/>
      <point x="527" y="549" type="curve"/>
      <point x="430" y="549"/>
      <point x="288" y="382"/>
      <point x="263" y="329" type="curve"/>
      <point x="282" y="331" type="line"/>
      <point x="388" y="800" type="line"/>
      <point x="297" y="796" type="line"/>
      <point x="286" y="741" type="line"/>
      <point x="109" y="0" type="line"/>
    </contour>
    <component base="serif-top-lc" xOffset="-37" yOffset="281"/>
    <component base="serif-end-lc" xOffset="296"/>
  </outline>
</glyph>
<glyph name="i" format="1">
  <advance width="314"/>
  <unicode hex="0069"/>
  <outline>
    <contour>
      <point x="347" y="792" type="curve" smooth="yes"/>
      <point x="398" y="792"/>
      <point x="401" y="773"/>
      <point x="385" y="708" type="curve" smooth="yes"/>
      <point x="369" y="644"/>
      <point x="357" y="638"/>
      <point x="306" y="638" type="curve" smooth="yes"/>
      <point x="255" y="638"/>
      <point x="250" y="659"/>
      <point x="266" y="724" type="curve" smooth="yes"/>
      <point x="282" y="788"/>
      <point x="296" y="792"/>
    </contour>
    <component base="serif-end-lc" xOffset="-46"/>
    <component base="serif-top-lc" xOffset="-94" yOffset="5"/>
    <component base="stem-lc" xOffset="-1"/>
  </outline>
</glyph>
<glyph name="j" format="1">
  <advance width="323.627436599"/>
  <unicode hex="006A"/>
  <outline>
    <contour>
      <point x="359" y="792" type="curve" smooth="yes"/>
      <point x="410" y="792"/>
      <point x="413" y="773"/>
      <point x="397" y="708" type="curve" smooth="yes"/>
      <point x="381" y="644"/>
      <point x="369" y="638"/>
      <point x="318" y="638" type="curve" smooth="yes"/>
      <point x="267" y="638"/>
      <point x="262" y="659"/>
      <point x="278" y="724" type="curve" smooth="yes"/>
      <point x="294" y="788"/>
      <point x="308" y="792"/>
    </contour>
    <contour>
      <point x="237" y="478" type="line"/>
      <point x="136" y="40" type="line" smooth="yes"/>
      <point x="104" y="-101"/>
      <point x="52" y="-148"/>
      <point x="-49" y="-148" type="curve"/>
      <point x="-55" y="-148"/>
      <point x="-60" y="-147"/>
      <point x="-65" y="-147" type="curve"/>
      <point x="-84" y="-222" type="line"/>
      <point x="-73" y="-224"/>
      <point x="-61" y="-225"/>
      <point x="-48" y="-225" type="curve"/>
      <point x="95" y="-225"/>
      <point x="180" y="-160"/>
      <point x="217" y="-5" type="curve" smooth="yes"/>
      <point x="344" y="525" type="line"/>
      <point x="282" y="525" type="line"/>
    </contour>
    <component base="serif-top-lc" xOffset="-82" yOffset="5"/>
  </outline>
</glyph>
<glyph name="k" format="1">
  <advance width="614"/>
  <unicode hex="006B"/>
  <outline>
    <contour>
      <point x="516" y="41" type="line"/>
      <point x="389" y="238" type="line"/>
      <point x="373" y="205" type="line"/>
      <point x="487" y="205"/>
      <point x="638" y="283"/>
      <point x="638" y="455" type="curve"/>
      <point x="638" y="504"/>
      <point x="580" y="549"/>
      <point x="522" y="549" type="curve"/>
      <point x="425" y="549"/>
      <point x="283" y="397"/>
      <point x="258" y="344" type="curve"/>
      <point x="278" y="348" type="line"/>
      <point x="386" y="802" type="line"/>
      <point x="296" y="796" type="line"/>
      <point x="108" y="0" type="line"/>
      <point x="203" y="0" type="line"/>
      <point x="270" y="278" type="line"/>
      <point x="296" y="328"/>
      <point x="424" y="459"/>
      <point x="487" y="459" type="curve"/>
      <point x="515" y="459"/>
      <point x="540" y="433"/>
      <point x="540" y="402" type="curve"/>
      <point x="540" y="333"/>
      <point x="446" y="258"/>
      <point x="314" y="258" type="curve"/>
      <point x="306" y="212" type="line"/>
      <point x="445" y="-24" type="line"/>
      <point x="583" y="14" type="line"/>
      <point x="593" y="63" type="line"/>
      <point x="474" y="63" type="line"/>
    </contour>
    <component base="serif-top-lc" xOffset="-41" yOffset="281"/>
  </outline>
</glyph>
<glyph name="m" format="1">
  <advance width="958.306108942"/>
  <unicode hex="006D"/>
  <outline>
    <contour>
      <point x="206" y="0" type="line"/>
      <point x="266" y="237" type="line"/>
      <point x="300" y="306"/>
      <point x="410" y="455"/>
      <point x="478" y="455" type="curve"/>
      <point x="506" y="455"/>
      <point x="531" y="430"/>
      <point x="531" y="398" type="curve"/>
      <point x="531" y="368"/>
      <point x="465" y="100"/>
      <point x="442" y="0" type="curve"/>
      <point x="537" y="0" type="line"/>
      <point x="542" y="36"/>
      <point x="625" y="382"/>
      <point x="625" y="455" type="curve"/>
      <point x="625" y="504"/>
      <point x="575" y="549"/>
      <point x="501" y="550" type="curve"/>
      <point x="409" y="549"/>
      <point x="287" y="365"/>
      <point x="271" y="331" type="curve"/>
      <point x="285" y="331" type="line"/>
      <point x="326" y="519" type="line"/>
      <point x="232" y="515" type="line"/>
      <point x="221" y="460" type="line"/>
      <point x="109" y="0" type="line"/>
    </contour>
    <contour>
      <point x="583" y="216" type="line"/>
      <point x="609" y="278"/>
      <point x="721" y="455"/>
      <point x="796" y="455" type="curve"/>
      <point x="824" y="455"/>
      <point x="849" y="430"/>
      <point x="849" y="398" type="curve"/>
      <point x="849" y="368"/>
      <point x="785" y="121"/>
      <point x="762" y="21" type="curve"/>
      <point x="864" y="49" type="line"/>
      <point x="869" y="85"/>
      <point x="950" y="382"/>
      <point x="950" y="455" type="curve"/>
      <point x="950" y="504"/>
      <point x="893" y="549"/>
      <point x="823" y="549" type="curve"/>
      <point x="720" y="549"/>
      <point x="592" y="339"/>
      <point x="580" y="300" type="curve"/>
    </contour>
    <component base="serif-top-lc" xOffset="-99"/>
    <component base="serif-end-lc" xOffset="600"/>
  </outline>
</glyph>
<glyph name="n" format="1">
  <advance width="644.306108942"/>
  <unicode hex="006E"/>
  <outline>
    <contour>
      <point x="258" y="240" type="line"/>
      <point x="293" y="311"/>
      <point x="420" y="455"/>
      <point x="483" y="455" type="curve"/>
      <point x="511" y="455"/>
      <point x="536" y="430"/>
      <point x="536" y="398" type="curve"/>
      <point x="536" y="368"/>
      <point x="472" y="121"/>
      <point x="449" y="21" type="curve"/>
      <point x="555" y="56" type="line"/>
      <point x="560" y="92"/>
      <point x="639" y="382"/>
      <point x="639" y="455" type="curve"/>
      <point x="639" y="502"/>
      <point x="580" y="549"/>
      <point x="522" y="549" type="curve"/>
      <point x="425" y="549"/>
      <point x="283" y="382"/>
      <point x="258" y="329" type="curve"/>
    </contour>
    <contour>
      <point x="453" y="21" type="line"/>
      <point x="501" y="-20" type="line"/>
      <point x="627" y="16" type="line"/>
      <point x="635" y="65" type="line"/>
      <point x="517" y="65" type="line"/>
    </contour>
    <contour>
      <point x="237" y="525" type="line"/>
      <point x="110" y="0" type="line"/>
      <point x="206" y="0" type="line"/>
      <point x="334" y="525" type="line"/>
    </contour>
    <component base="serif-top-lc" xOffset="-93" yOffset="7"/>
  </outline>
</glyph>
<glyph name="o" format="1">
  <advance width="566.592602593"/>
  <unicode hex="006F"/>
  <outline>
    <contour>
      <point x="102" y="264"/>
      <point x="135" y="527"/>
      <point x="383" y="563" type="curve" smooth="yes"/>
      <point x="513" y="582"/>
      <point x="570" y="510"/>
      <point x="577" y="391" type="curve"/>
      <point x="585" y="269"/>
      <point x="548" y="0"/>
      <point x="304" y="-31" type="curve" smooth="yes"/>
      <point x="197" y="-44"/>
      <point x="118" y="6"/>
      <point x="112" y="120" type="curve"/>
    </contour>
    <contour>
      <point x="444" y="66"/>
      <point x="486" y="271"/>
      <point x="480" y="378" type="curve"/>
      <point x="475" y="453"/>
      <point x="455" y="503"/>
      <point x="382" y="488" type="curve" smooth="yes"/>
      <point x="242" y="459"/>
      <point x="200" y="277"/>
      <point x="208" y="142" type="curve"/>
      <point x="212" y="76"/>
      <point x="244" y="31"/>
      <point x="308" y="42" type="curve" smooth="yes"/>
    </contour>
  </outline>
</glyph>
<glyph name="p" format="1">
  <advance width="620.66332411"/>
  <unicode hex="0070"/>
  <outline>
    <contour>
      <point x="158" y="64" type="line"/>
      <point x="215" y="36"/>
      <point x="242" y="-18"/>
      <point x="347" y="-18" type="curve"/>
      <point x="580" y="-18"/>
      <point x="648" y="241"/>
      <point x="648" y="421" type="curve"/>
      <point x="648" y="490"/>
      <point x="572" y="548"/>
      <point x="508" y="548" type="curve" smooth="yes"/>
      <point x="383" y="548"/>
      <point x="265" y="361"/>
      <point x="239" y="328" type="curve"/>
      <point x="256" y="273" type="line"/>
      <point x="286" y="307"/>
      <point x="400" y="466"/>
      <point x="474" y="466" type="curve" smooth="yes"/>
      <point x="501" y="466"/>
      <point x="545" y="433"/>
      <point x="545" y="392" type="curve"/>
      <point x="545" y="261"/>
      <point x="493" y="55"/>
      <point x="350" y="55" type="curve"/>
      <point x="268" y="55"/>
      <point x="230" y="97"/>
      <point x="204" y="108" type="curve"/>
    </contour>
    <contour>
      <point x="52" y="-253" type="line"/>
      <point x="100" y="-294" type="line"/>
      <point x="226" y="-258" type="line"/>
      <point x="235" y="-209" type="line"/>
      <point x="116" y="-209" type="line"/>
    </contour>
    <component base="serif-top-lc" xOffset="-97" yOffset="6"/>
    <component base="stem-lc-tall" xOffset="-59" yOffset="-274"/>
  </outline>
</glyph>
<glyph name="q" format="1">
  <advance width="596"/>
  <unicode hex="0071"/>
  <outline>
    <contour>
      <point x="553" y="326" type="line"/>
      <point x="536" y="383"/>
      <point x="483" y="556"/>
      <point x="346" y="556" type="curve" smooth="yes"/>
      <point x="192" y="556"/>
      <point x="103" y="335"/>
      <point x="103" y="113" type="curve"/>
      <point x="103" y="44"/>
      <point x="169" y="-20"/>
      <point x="235" y="-20" type="curve"/>
      <point x="364" y="-20"/>
      <point x="448" y="108"/>
      <point x="490" y="165" type="curve"/>
      <point x="476" y="205" type="line"/>
      <point x="430" y="147"/>
      <point x="352" y="56"/>
      <point x="268" y="56" type="curve"/>
      <point x="227" y="56"/>
      <point x="197" y="101"/>
      <point x="197" y="137" type="curve"/>
      <point x="197" y="297"/>
      <point x="268" y="476"/>
      <point x="366" y="476" type="curve" smooth="yes"/>
      <point x="451" y="476"/>
      <point x="499" y="322"/>
      <point x="506" y="283" type="curve"/>
    </contour>
    <contour>
      <point x="333" y="-259" type="line"/>
      <point x="381" y="-300" type="line"/>
      <point x="507" y="-264" type="line"/>
      <point x="516" y="-215" type="line"/>
      <point x="397" y="-215" type="line"/>
    </contour>
    <contour>
      <point x="514" y="519" type="line"/>
      <point x="594" y="450" type="line"/>
      <point x="670" y="450" type="line"/>
      <point x="680" y="503" type="line"/>
      <point x="554" y="555" type="line"/>
    </contour>
    <component base="stem-lc-tall" xOffset="223" yOffset="-282"/>
  </outline>
</glyph>
<glyph name="r" format="1">
  <advance width="467.564617953"/>
  <unicode hex="0072"/>
  <outline>
    <contour>
      <point x="202" y="0" type="line"/>
      <point x="256" y="216" type="line"/>
      <point x="291" y="276"/>
      <point x="416" y="452"/>
      <point x="509" y="452" type="curve"/>
      <point x="483" y="483" type="line"/>
      <point x="483" y="376" type="line"/>
      <point x="548" y="364" type="line"/>
      <point x="586" y="513" type="line"/>
      <point x="514" y="549" type="line"/>
      <point x="417" y="549"/>
      <point x="277" y="349"/>
      <point x="252" y="296" type="curve"/>
      <point x="271" y="298" type="line"/>
      <point x="323" y="525" type="line"/>
      <point x="232" y="525" type="line"/>
      <point x="108" y="0" type="line"/>
    </contour>
    <component base="serif-top-lc" xOffset="-103" yOffset="6"/>
  </outline>
</glyph>
<glyph name="s" format="1">
  <advance width="488.337746432"/>
  <unicode hex="0073"/>
  <outline>
    <contour>
      <point x="485" y="328"/>
      <point x="247" y="287"/>
      <point x="247" y="394" type="curve" smooth="yes"/>
      <point x="247" y="446"/>
      <point x="296" y="480"/>
      <point x="340" y="480" type="curve"/>
      <point x="380" y="480"/>
      <point x="431" y="475"/>
      <point x="455" y="453" type="curve"/>
      <point x="442" y="503" type="line"/>
      <point x="436" y="395" type="line"/>
      <point x="489" y="375" type="line"/>
      <point x="533" y="511" type="line"/>
      <point x="500" y="532"/>
      <point x="435" y="553"/>
      <point x="357" y="553" type="curve"/>
      <point x="226" y="553"/>
      <point x="153" y="469"/>
      <point x="153" y="385" type="curve"/>
      <point x="153" y="204"/>
      <point x="391" y="260"/>
      <point x="391" y="147" type="curve"/>
      <point x="391" y="93"/>
      <point x="331" y="54"/>
      <point x="268" y="54" type="curve"/>
      <point x="212" y="54"/>
      <point x="171" y="79"/>
      <point x="151" y="100" type="curve"/>
      <point x="175" y="31" type="line"/>
      <point x="173" y="151" type="line"/>
      <point x="115" y="169" type="line"/>
      <point x="81" y="33" type="line"/>
      <point x="121" y="5"/>
      <point x="184" y="-24"/>
      <point x="277" y="-24" type="curve"/>
      <point x="403" y="-24"/>
      <point x="485" y="58"/>
      <point x="485" y="164" type="curve"/>
    </contour>
  </outline>
</glyph>
<glyph name="u" format="1">
  <advance width="647.306108942"/>
  <unicode hex="0075"/>
  <outline>
    <contour>
      <point x="570" y="525" type="line"/>
      <point x="495" y="219" type="line"/>
      <point x="508" y="248" type="line"/>
      <point x="452" y="177"/>
      <point x="358" y="63"/>
      <point x="288" y="63" type="curve"/>
      <point x="260" y="63"/>
      <point x="234" y="83"/>
      <point x="234" y="118" type="curve"/>
      <point x="234" y="148"/>
      <point x="304" y="419"/>
      <point x="327" y="519" type="curve"/>
      <point x="220" y="476" type="line"/>
      <point x="215" y="440"/>
      <point x="134" y="146"/>
      <point x="134" y="73" type="curve"/>
      <point x="134" y="24"/>
      <point x="191" y="-24"/>
      <point x="249" y="-24" type="curve"/>
      <point x="353" y="-24"/>
      <point x="481" y="121"/>
      <point x="499" y="185" type="curve"/>
      <point x="491" y="194" type="line"/>
      <point x="454" y="21" type="line"/>
      <point x="544" y="10" type="line"/>
      <point x="555" y="65" type="line"/>
      <point x="666" y="519" type="line"/>
    </contour>
    <component base="serif-top-lc" xOffset="-99"/>
    <component base="serif-end-lc" xOffset="292"/>
    <component base="serif-top-lc" xOffset="240"/>
  </outline>
</glyph>
<glyph name="v" format="1">
  <advance width="542.179408806"/>
  <unicode hex="0076"/>
  <outline>
    <contour>
      <point x="262" y="520" type="line"/>
      <point x="175" y="468" type="line"/>
      <point x="223" y="0" type="line"/>
      <point x="308" y="0" type="line"/>
      <point x="641" y="518" type="line"/>
      <point x="516" y="476" type="line"/>
      <point x="273" y="71" type="line"/>
      <point x="295" y="73" type="line"/>
    </contour>
    <contour>
      <point x="262" y="520" type="line"/>
      <point x="222" y="556" type="line"/>
      <point x="113" y="504" type="line"/>
      <point x="102" y="451" type="line"/>
      <point x="180" y="451" type="line"/>
    </contour>
    <contour>
      <point x="642" y="519" type="line"/>
      <point x="602" y="555" type="line"/>
      <point x="447" y="503" type="line"/>
      <point x="436" y="450" type="line"/>
      <point x="545" y="450" type="line"/>
    </contour>
  </outline>
</glyph>
<glyph name="w" format="1">
  <advance width="830.179408806"/>
  <unicode hex="0077"/>
  <outline>
    <contour>
      <point x="262" y="520" type="line"/>
      <point x="222" y="556" type="line"/>
      <point x="97" y="505" type="line"/>
      <point x="86" y="452" type="line"/>
      <point x="180" y="451" type="line"/>
    </contour>
    <contour>
      <point x="930" y="519" type="line"/>
      <point x="890" y="555" type="line"/>
      <point x="750" y="503" type="line"/>
      <point x="739" y="450" type="line"/>
      <point x="833" y="450" type="line"/>
    </contour>
    <contour>
      <point x="488" y="428" type="line"/>
      <point x="553" y="0" type="line"/>
      <point x="638" y="0" type="line"/>
      <point x="929" y="518" type="line"/>
      <point x="804" y="476" type="line"/>
      <point x="603" y="71" type="line"/>
      <point x="625" y="73" type="line"/>
      <point x="570" y="533" type="line"/>
      <point x="474" y="502" type="line"/>
      <point x="271" y="71" type="line"/>
      <point x="293" y="73" type="line"/>
      <point x="262" y="520" type="line"/>
      <point x="175" y="468" type="line"/>
      <point x="221" y="0" type="line"/>
      <point x="306" y="0" type="line"/>
      <point x="524" y="434" type="line"/>
    </contour>
  </outline>
</glyph>
<glyph name="y" format="1">
  <advance width="627"/>
  <unicode hex="0079"/>
  <outline>
    <contour>
      <point x="505" y="255" type="line"/>
      <point x="449" y="184"/>
      <point x="352" y="63"/>
      <point x="287" y="63" type="curve"/>
      <point x="259" y="63"/>
      <point x="233" y="83"/>
      <point x="233" y="118" type="curve"/>
      <point x="233" y="148"/>
      <point x="303" y="419"/>
      <point x="326" y="519" type="curve"/>
      <point x="219" y="476" type="line"/>
      <point x="214" y="440"/>
      <point x="133" y="146"/>
      <point x="133" y="73" type="curve"/>
      <point x="133" y="24"/>
      <point x="190" y="-24"/>
      <point x="248" y="-24" type="curve"/>
      <point x="362" y="-24"/>
      <point x="477" y="120"/>
      <point x="490" y="170" type="curve"/>
    </contour>
    <contour>
      <point x="552" y="478" type="line"/>
      <point x="452" y="36" type="line" smooth="yes"/>
      <point x="420" y="-105"/>
      <point x="368" y="-152"/>
      <point x="267" y="-152" type="curve"/>
      <point x="194" y="-150"/>
      <point x="150" y="-103"/>
      <point x="127" y="-82" type="curve"/>
      <point x="102" y="-148" type="line"/>
      <point x="119" y="-164"/>
      <point x="178" y="-225"/>
      <point x="267" y="-225" type="curve"/>
      <point x="410" y="-225"/>
      <point x="495" y="-160"/>
      <point x="532" y="-5" type="curve" smooth="yes"/>
      <point x="659" y="525" type="line"/>
      <point x="597" y="525" type="line"/>
    </contour>
    <component base="serif-top-lc" xOffset="-100"/>
    <component base="serif-top-lc" xOffset="233" yOffset="5"/>
  </outline>
</glyph>
<glyph name="quoteleft" format="1">
  <advance width="316"/>
  <unicode hex="2018"/>
  <outline>
    <contour>
      <point x="365" y="577" type="curve" smooth="yes"/>
      <point x="379" y="641"/>
      <point x="366" y="658"/>
      <point x="311" y="669" type="curve" smooth="yes"/>
      <point x="258" y="681"/>
      <point x="240" y="670"/>
      <point x="226" y="607" type="curve" smooth="yes"/>
      <point x="211" y="542"/>
      <point x="226" y="527"/>
      <point x="279" y="516" type="curve" smooth="yes"/>
      <point x="334" y="505"/>
      <point x="351" y="513"/>
    </contour>
    <contour>
      <point x="346" y="759" type="line"/>
      <point x="291" y="771" type="line"/>
      <point x="241" y="681" type="line"/>
      <point x="227" y="609" type="line"/>
      <point x="310" y="591" type="line"/>
    </contour>
  </outline>
</glyph>
<glyph name="quoteright" format="1">
  <advance width="322"/>
  <unicode hex="2019"/>
  <outline>
    <contour>
      <point x="240" y="701" type="curve" smooth="yes"/>
      <point x="226" y="637"/>
      <point x="239" y="620"/>
      <point x="293" y="609" type="curve" smooth="yes"/>
      <point x="345" y="597"/>
      <point x="365" y="608"/>
      <point x="378" y="671" type="curve" smooth="yes"/>
      <point x="392" y="735"/>
      <point x="378" y="750"/>
      <point x="325" y="761" type="curve" smooth="yes"/>
      <point x="271" y="773"/>
      <point x="253" y="764"/>
    </contour>
    <contour>
      <point x="259" y="519" type="line"/>
      <point x="314" y="507" type="line"/>
      <point x="363" y="597" type="line"/>
      <point x="378" y="669" type="line"/>
      <point x="295" y="687" type="line"/>
    </contour>
  </outline>
</glyph>
<glyph name="quotedblright" format="1">
  <advance width="515.171689898"/>
  <unicode hex="201D"/>
  <outline>
    <contour>
      <point x="246" y="701" type="curve" smooth="yes"/>
      <point x="232" y="637"/>
      <point x="245" y="620"/>
      <point x="299" y="609" type="curve" smooth="yes"/>
      <point x="351" y="597"/>
      <point x="371" y="608"/>
      <point x="384" y="671" type="curve" smooth="yes"/>
      <point x="398" y="735"/>
      <point x="384" y="750"/>
      <point x="331" y="761" type="curve" smooth="yes"/>
      <point x="277" y="773"/>
      <point x="259" y="764"/>
    </contour>
    <contour>
      <point x="265" y="519" type="line"/>
      <point x="320" y="507" type="line"/>
      <point x="369" y="597" type="line"/>
      <point x="384" y="669" type="line"/>
      <point x="301" y="687" type="line"/>
    </contour>
    <contour>
      <point x="446" y="701" type="curve" smooth="yes"/>
      <point x="432" y="637"/>
      <point x="445" y="620"/>
      <point x="499" y="609" type="curve" smooth="yes"/>
      <point x="551" y="597"/>
      <point x="571" y="608"/>
      <point x="584" y="671" type="curve" smooth="yes"/>
      <point x="598" y="735"/>
      <point x="584" y="750"/>
      <point x="531" y="761" type="curve" smooth="yes"/>
      <point x="477" y="773"/>
      <point x="459" y="764"/>
    </contour>
    <contour>
      <point x="465" y="519" type="line"/>
      <point x="520" y="507" type="line"/>
      <point x="569" y="597" type="line"/>
      <point x="584" y="669" type="line"/>
      <point x="501" y="687" type="line"/>
    </contour>
  </outline>
</glyph>
<glyph name="serif-end-lc" format="1">
  <advance width="500"/>
  <outline>
    <contour>
      <point x="149" y="0" type="line"/>
      <point x="331" y="0" type="line"/>
      <point x="340" y="47" type="line"/>
      <point x="262" y="78" type="line"/>
    </contour>
  </outline>
</glyph>
<glyph name="serif-top-lc" format="1">
  <advance width="500"/>
  <outline>
    <contour>
      <point x="426" y="519" type="line"/>
      <point x="386" y="555" type="line"/>
      <point x="236" y="503" type="line"/>
      <point x="223" y="447" type="line"/>
      <point x="317" y="447" type="line"/>
    </contour>
  </outline>
</glyph>
<glyph name="stem-lc-tall" format="1">
  <advance width="500"/>
  <outline>
    <contour>
      <point x="291" y="800" type="line"/>
      <point x="111" y="21" type="line"/>
      <point x="203" y="0" type="line"/>
      <point x="388" y="800" type="line"/>
    </contour>
  </outline>
</glyph>
<glyph name="stem-lc" format="1">
  <advance width="500"/>
  <outline>
    <contour>
      <point x="236" y="524" type="line"/>
      <point x="109" y="0" type="line"/>
      <point x="206" y="0" type="line"/>
      <point x="333" y="524" type="line"/>
    </contour>
  </outline>
</glyph>
